<svg xmlns="http://www.w3.org/2000/svg" width="202" height="250" viewBox="0 0 202 250" version="1.1">
	<path d="M 41.762 1.942 C 26.969 6.671, 16.167 18.205, 14.390 31.170 C 13.477 37.831, 15.455 43.401, 20.645 48.782 L 25.196 53.500 24.098 58.326 C 22.595 64.933, 22.740 75.432, 24.420 81.744 C 26.638 90.077, 29.646 95.351, 37.104 103.981 C 42.970 110.769, 43.785 112.139, 42.283 112.683 C 12.488 123.463, -4.648 144.491, 1.436 162.807 C 5.170 174.050, 16.028 180.147, 26.809 177.055 C 31.693 175.654, 31.982 178.055, 27.683 184.305 C 25.718 187.162, 22.848 192.200, 21.305 195.500 C 18.651 201.177, 18.500 202.253, 18.500 215.500 C 18.500 228.707, 18.650 229.783, 21.144 234.508 C 24.352 240.584, 28.169 244.536, 33.415 247.211 C 41.599 251.387, 56.140 250.479, 69.490 244.960 C 75.533 242.461, 77.052 242.194, 80.500 243.021 C 85.449 244.208, 114.915 244.252, 120.877 243.082 C 124.538 242.363, 126.151 242.619, 130.743 244.650 C 148.133 252.340, 164.752 251.656, 173.893 242.872 C 180.653 236.376, 182.355 231.590, 182.817 217.774 C 183.290 203.632, 181.311 195.688, 174.935 186.141 C 170.972 180.206, 170.145 176.162, 173.029 176.823 C 173.804 177.001, 176.498 177.390, 179.016 177.688 C 188.412 178.801, 198.905 171.356, 200.588 162.382 C 200.937 160.522, 201.623 159, 202.111 159 C 202.600 159, 203 156.675, 203 153.833 C 203 150.992, 202.730 148.937, 202.400 149.267 C 202.069 149.597, 200.186 146.635, 198.215 142.684 C 192.068 130.365, 182.354 122.293, 164.156 114.382 C 157.179 111.349, 156.882 111.091, 158.904 109.833 C 162.547 107.568, 170.827 96.596, 173.957 89.886 C 178.512 80.123, 179.790 70.723, 177.856 61.227 L 176.290 53.539 180.591 49.360 C 189.428 40.771, 189.787 29.662, 181.614 17.718 C 174.051 6.668, 162.101 0.578, 148 0.589 C 140.764 0.595, 138.739 0.990, 134.380 3.249 C 131.564 4.708, 128.100 7.281, 126.682 8.967 C 124.154 11.970, 124.007 12.009, 119.301 10.914 C 113.652 9.599, 87.253 9.632, 81.541 10.962 C 77.739 11.847, 77.399 11.711, 72.915 7.517 C 65.114 0.220, 53.596 -1.841, 41.762 1.942 M 39.500 10.378 C 25.568 16.948, 19.273 30.851, 25.723 40.800 C 27.221 43.110, 28.684 44.969, 28.973 44.930 C 29.263 44.892, 31.551 42.079, 34.057 38.680 C 39.540 31.245, 49.116 23.792, 60.243 18.298 L 68.454 14.244 63.531 11.122 C 59.211 8.382, 57.745 8.001, 51.554 8.010 C 46.238 8.017, 43.268 8.601, 39.500 10.378 M 143.952 9.107 C 142 9.655, 139.103 11.140, 137.514 12.407 L 134.624 14.712 144.062 19.559 C 151.769 23.517, 155.213 26.112, 162.840 33.703 C 167.977 38.816, 172.477 42.986, 172.840 42.969 C 173.203 42.951, 174.384 41.726, 175.465 40.246 C 178.099 36.637, 177.977 28.835, 175.201 23.393 C 169.871 12.946, 154.808 6.060, 143.952 9.107 M 63.821 51.025 C 61.396 53.450, 60.924 54.591, 61.441 56.775 C 62.919 63.023, 70.927 65.164, 75.545 60.545 C 79.396 56.694, 78.701 51.931, 73.928 49.463 C 69.704 47.278, 67.177 47.669, 63.821 51.025 M 125.455 50.455 C 120.450 55.459, 123.859 63, 131.126 63 C 135.800 63, 139 59.965, 139 55.534 C 139 48.802, 130.351 45.559, 125.455 50.455 M 87.265 61.542 C 71.080 65.900, 59.457 77.101, 57.487 90.237 C 55.303 104.804, 69.800 120.841, 88.799 124.875 C 121.778 131.877, 152.039 106.956, 140.542 82.263 C 132.718 65.457, 108.173 55.911, 87.265 61.542 M 89.152 68.695 C 87.283 69.616, 85.102 71.816, 84.216 73.673 C 82.765 76.716, 82.767 77.288, 84.237 80.370 C 85.120 82.223, 88.466 85.730, 91.672 88.163 C 97.988 92.958, 99.139 95.613, 96.587 99.508 C 94.124 103.266, 88.561 104.342, 83.399 102.058 C 78.916 100.075, 78 100.248, 78 103.077 C 78 104.158, 79.732 105.660, 82.553 107.026 C 86.684 109.026, 87.524 109.113, 91.600 107.972 C 94.072 107.280, 97.167 105.870, 98.477 104.839 C 100.828 102.990, 100.909 102.999, 104.569 105.483 C 109.703 108.966, 117.694 109.028, 121.662 105.615 C 124.068 103.545, 124.255 103.012, 123.076 101.592 C 121.850 100.115, 121.491 100.104, 119.394 101.477 C 113.740 105.182, 104.913 102.078, 103.460 95.873 C 102.948 93.686, 103.402 92.865, 106.173 90.968 C 108.003 89.715, 111.412 86.865, 113.750 84.636 C 117.220 81.328, 118 79.920, 118 76.966 C 118 72.966, 115.460 69.876, 110.685 68.067 C 106.263 66.391, 93.045 66.777, 89.152 68.695 M 71.500 134.231 C 56.351 139.653, 50.889 155.932, 58.897 171.797 C 61.021 176.005, 63.376 178.840, 66.886 181.416 C 73.520 186.286, 81.268 194.885, 84.694 201.179 C 88.130 207.492, 98.198 216, 102.233 216 C 106.288 216, 112.423 209.926, 116.228 202.142 C 120.047 194.331, 131.019 182.791, 138.217 179.014 C 146.306 174.769, 151.134 162.780, 148.964 152.325 C 145.009 133.278, 120.896 126.552, 106.391 140.450 L 102.031 144.627 98.766 141.191 C 92.062 134.137, 80.214 131.113, 71.500 134.231 M 0.300 155 C 0.300 158.025, 0.487 159.262, 0.716 157.750 C 0.945 156.238, 0.945 153.762, 0.716 152.250 C 0.487 150.738, 0.300 151.975, 0.300 155 M 40.481 184.331 C 36.570 186.116, 31.267 192.197, 28.606 197.949 C 26.815 201.819, 26.500 204.396, 26.500 215.161 C 26.500 227.652, 26.541 227.881, 29.542 232.153 C 34.040 238.557, 38.953 240.963, 47.568 240.984 C 60.323 241.013, 72.438 235.585, 78 227.348 C 81.721 221.838, 81.543 212.627, 77.558 204.500 C 73.957 197.155, 65.630 188.608, 59.380 185.844 C 53.441 183.217, 44.492 182.501, 40.481 184.331 M 144.724 184.527 C 139.073 186.602, 132.441 191.743, 128.012 197.485 C 123.279 203.619, 121.450 207.802, 120.543 214.560 C 118.547 229.448, 134.632 241.773, 154.858 240.855 C 161.955 240.533, 163.241 240.160, 166.661 237.439 C 174.193 231.446, 177.350 219.959, 175.012 207.063 C 171.609 188.301, 159.330 179.165, 144.724 184.527" stroke="none" fill="black" fill-rule="evenodd"/>
</svg>