<svg xmlns="http://www.w3.org/2000/svg" width="274" height="265" viewBox="0 0 274 265" version="1.1">
	<path d="M 109 1.975 C 95.665 4.482, 91 5.877, 91 7.357 C 91 8.061, 91.651 10.856, 92.446 13.568 C 95.830 25.107, 98.002 34.167, 98.596 39.216 C 99.133 43.787, 98.843 45.369, 96.704 49.556 C 95.314 52.275, 93.202 55.532, 92.010 56.793 L 89.842 59.086 94.921 84.589 C 97.714 98.615, 100 110.873, 100 111.828 C 100 112.901, 99.141 113.641, 97.750 113.767 C 96.513 113.878, 90.325 116.054, 84 118.601 C 77.675 121.147, 70.250 124.120, 67.500 125.206 C 64.750 126.291, 60.700 127.993, 58.500 128.986 C 56.300 129.980, 51.575 131.992, 48 133.457 C 44.425 134.923, 39.025 137.267, 36 138.668 C 32.975 140.068, 28.700 141.922, 26.500 142.788 C 24.300 143.654, 22.275 144.656, 22 145.015 C 21.725 145.373, 18.575 147.200, 15 149.074 C 8.027 152.729, 8.132 152.662, 3.250 156.574 C -0.478 159.560, -0.672 160.646, 1.750 164.940 C 2.902 166.981, 4.776 168.428, 7.231 169.173 C 10.691 170.223, 11.832 171.651, 12.422 175.667 C 12.536 176.448, 13.434 178.025, 14.416 179.172 C 15.398 180.319, 15.799 181.537, 15.308 181.879 C 7.937 187.007, 2.695 191.660, 1.853 193.819 C 0.325 197.741, 3.388 203.122, 7.877 204.400 C 10.384 205.114, 11.636 206.279, 12.741 208.922 C 14.647 213.484, 18.448 217, 21.474 217 C 23.295 217, 24.112 217.808, 24.995 220.484 C 26.387 224.702, 30.313 228, 33.942 228 C 35.973 228, 37.377 229.080, 39.787 232.500 C 42.511 236.364, 43.451 237, 46.440 237 C 49.953 237, 50.354 237.275, 54.083 242.250 C 55.818 244.564, 56.886 245, 60.823 245 C 64.970 245, 65.817 245.397, 68.293 248.500 C 70.825 251.673, 71.559 252, 76.161 252 C 80.374 252, 81.816 252.510, 84.653 255 C 88.432 258.319, 88.986 258.438, 93.971 257.008 C 96.793 256.199, 97.593 256.308, 98.317 257.602 C 99.972 260.559, 105.100 261.962, 109.733 260.726 C 113.284 259.778, 114.191 259.863, 115.772 261.293 C 118.658 263.905, 123.272 264.428, 126.897 262.553 C 129.915 260.993, 130.201 261.013, 132.671 262.956 C 135.927 265.517, 139.051 265.548, 143.142 263.060 C 146.017 261.311, 146.606 261.262, 149.116 262.560 C 152.857 264.494, 154.826 264.377, 159.352 261.951 C 162.602 260.209, 163.683 260.070, 166.572 261.024 C 170.692 262.383, 173.305 261.663, 176.416 258.307 C 178.570 255.984, 179.064 255.866, 182.241 256.914 C 186.300 258.254, 190.577 257.049, 192.745 253.953 C 193.814 252.428, 195.290 252, 199.484 252 C 204.304 252, 205.104 251.682, 207.287 248.893 C 209.211 246.434, 210.689 245.677, 214.371 245.262 C 218.112 244.840, 219.638 244.038, 222.159 241.166 C 224.488 238.514, 226.338 237.454, 229.350 237.048 C 232.671 236.599, 233.893 235.784, 236.085 232.553 C 238.145 229.519, 239.758 228.363, 243.063 227.553 C 246.725 226.656, 247.686 225.851, 249.559 222.116 C 251.401 218.441, 252.532 217.471, 256.562 216.116 C 260.874 214.666, 261.516 214.050, 262.811 210.120 C 263.978 206.576, 264.946 205.468, 267.878 204.316 C 271.575 202.863, 274 199.367, 274 195.489 C 274 192.890, 271.587 190.236, 264.395 184.923 C 261.347 182.670, 259.061 180.304, 259.316 179.664 C 262.965 170.517, 263.292 170, 265.434 170 C 268.158 170, 271.615 166.455, 272.545 162.708 C 273.137 160.323, 272.664 159.377, 269.298 156.208 C 267.131 154.169, 262.915 151.253, 259.929 149.728 C 256.943 148.204, 252.700 145.922, 250.500 144.659 C 248.300 143.395, 238.175 138.859, 228 134.577 C 217.825 130.296, 207.124 125.715, 204.220 124.397 C 201.317 123.078, 198.354 122, 197.637 122 C 196.920 122, 196.024 121.691, 195.646 121.312 C 195.268 120.934, 190.805 118.981, 185.729 116.971 L 176.500 113.317 176.767 108.413 C 176.914 105.715, 178.598 95.740, 180.510 86.244 C 186.010 58.919, 186.002 59.363, 181.121 52.925 C 175.597 45.638, 175.636 41.901, 181.441 21.871 C 183.883 13.443, 185.730 6.396, 185.544 6.211 C 183.938 4.604, 153.468 -0.801, 152.346 0.321 C 151.462 1.205, 153.512 10.378, 157.077 21.500 C 162.026 36.935, 162.148 36.059, 154.603 39.250 C 148.988 41.624, 146.753 42, 138.238 42 C 130.422 42, 127.517 41.585, 124.236 40 C 121.959 38.900, 118.976 38, 117.607 38 C 116.238 38, 114.895 37.640, 114.623 37.200 C 114.351 36.759, 116.073 30.122, 118.448 22.450 C 120.824 14.777, 123.085 6.588, 123.472 4.250 C 124.164 0.069, 124.130 0.002, 121.338 0.094 C 119.777 0.146, 114.225 0.992, 109 1.975" stroke="none" fill="black" fill-rule="evenodd"/>
</svg>