<svg xmlns="http://www.w3.org/2000/svg" width="360" height="360" viewBox="0 0 360 360" version="1.1">
	<path d="M 157.431 85.085 C 142.747 86.146, 128.359 89.176, 120.470 92.867 C 109.744 97.887, 106.754 101.877, 95.055 126.786 L 84.722 148.789 80.890 149.402 C 74.177 150.475, 60.756 155.095, 52.676 159.114 C 30.364 170.212, 21.200 181.410, 18.797 200.516 C 18.037 206.555, 17.967 212.287, 18.583 218 L 19.500 226.500 27 227.106 C 62.849 230.005, 70.207 230.256, 102.186 229.673 L 135.871 229.058 138.436 232.106 C 141.941 236.272, 141.991 242.639, 138.548 246.354 C 137.199 247.809, 135.624 249, 135.048 249 C 131.732 249, 136.586 261.323, 142.466 267.831 C 148.258 274.241, 152.937 276, 164.202 276 C 172.735 276, 174.351 275.697, 179.119 273.207 C 185.149 270.056, 188.813 265.481, 192.424 256.588 L 194.826 250.676 205.663 250.447 C 211.623 250.320, 226.111 250.056, 237.858 249.859 L 259.217 249.500 261.022 255.320 C 264.285 265.840, 270.269 272.556, 278.565 275.005 C 280.950 275.710, 286.598 276.060, 292.231 275.853 C 301.028 275.530, 302.196 275.245, 306.159 272.458 C 311.403 268.770, 317.319 260.560, 319.114 254.478 C 320.319 250.398, 320.717 250, 323.597 250 C 328.165 250, 329.460 246.302, 328.693 235.444 L 328.097 227 335.049 227 L 342 227 341.992 223.250 C 341.969 211.767, 337.546 196.862, 330.846 185.693 C 325.820 177.315, 314.759 166.001, 306.706 161 C 301.431 157.725, 300.866 156.985, 297.908 149.500 C 281.170 107.142, 260.419 90.099, 219.500 85.104 C 209.422 83.874, 174.344 83.863, 157.431 85.085 M 150.422 102.257 C 144.020 108.866, 115.964 136.096, 109.730 141.750 L 105.045 146 114.376 146 C 119.508 146, 126.360 146.254, 129.603 146.564 L 135.500 147.129 144 138.976 C 164.420 119.391, 177 106.545, 177 105.277 C 177 101.094, 168.599 97.010, 160 97.012 C 155.885 97.013, 155.065 97.462, 150.422 102.257 M 211.252 103.015 C 199.540 104.724, 191.766 110.213, 188.046 119.398 C 186.910 122.204, 183.794 132, 181.122 141.167 L 176.264 157.833 185.624 158.535 C 192.456 159.047, 238.178 158.665, 241.900 158.065 C 242.606 157.951, 240.988 135.934, 239.511 125.548 C 238.023 115.091, 235.530 105.400, 233.776 103.250 C 232.637 101.855, 220.097 101.725, 211.252 103.015 M 240.557 108.187 C 242.546 115.687, 245.814 137.755, 246.600 149 L 247.264 158.500 267.132 158.814 C 283.990 159.080, 287 158.907, 287 157.673 C 287 154.139, 281.846 136.888, 278.930 130.659 C 275.078 122.434, 266.412 112.738, 260.076 109.567 C 255.280 107.167, 247.705 104.581, 242.324 103.507 L 239.148 102.874 240.557 108.187 M 233.250 172.491 C 229.480 174.129, 229.146 175.918, 232.108 178.595 C 235.368 181.542, 246.181 181.275, 249.241 178.172 L 251.500 175.882 248.694 173.441 C 245.418 170.591, 238.588 170.171, 233.250 172.491 M 32.468 174.830 C 28.515 177.275, 23.449 186.894, 22.108 194.500 C 19.144 211.311, 29.195 217.654, 39.749 205.633 C 46.515 197.927, 49.545 181.898, 45.312 176.205 C 42.728 172.731, 36.875 172.105, 32.468 174.830 M 105 173.722 C 100.759 175.315, 97.487 178.907, 94.391 185.367 C 91.659 191.068, 91 193.652, 91 198.657 C 91 206.045, 92.062 209.227, 95.636 212.538 C 98.711 215.388, 104.475 215.849, 108.800 213.589 C 115.912 209.874, 121.015 200.520, 121.783 189.793 C 122.330 182.142, 121.049 177.970, 117.230 174.966 C 114.794 173.050, 108.493 172.409, 105 173.722 M 167.643 222.102 C 156.731 225.090, 153.130 245.002, 161.969 253.470 C 166.109 257.436, 170.103 258.193, 174.755 255.891 C 190.032 248.333, 183.591 217.735, 167.643 222.102 M 291.500 223.403 C 281.129 227.980, 278.852 244.456, 287.323 253.629 C 291.588 258.247, 296.262 259.002, 300.946 255.828 C 306.451 252.098, 308.504 247.644, 308.474 239.500 C 308.443 231.318, 306.515 226.895, 301.701 223.960 C 297.983 221.692, 295.662 221.566, 291.500 223.403 M 38.509 253.091 C 38.915 254.966, 40.291 258.573, 41.568 261.107 C 47.356 272.595, 53.676 276.332, 67.432 276.399 C 81.163 276.466, 87.646 272.650, 93.412 261.107 C 94.678 258.573, 96.012 255.262, 96.376 253.750 L 97.038 251 78.175 251 C 67.800 251, 54.465 250.703, 48.541 250.341 L 37.771 249.682 38.509 253.091" stroke="none" fill="black" fill-rule="evenodd"/>
</svg>