<svg xmlns="http://www.w3.org/2000/svg" width="392" height="392" viewBox="0 0 392 392" version="1.1">
	<path d="M 268.412 62.043 C 254.296 63.437, 237.575 70.221, 228.443 78.259 C 220.639 85.129, 211.867 102.608, 206.382 122.222 C 202.846 134.862, 201.926 161.692, 204.435 179 C 207.852 202.579, 212.524 216.664, 219.319 223.875 C 225.366 230.292, 236.835 238.066, 242.389 239.513 C 258.563 243.726, 292.576 246.414, 310.535 244.899 C 319.308 244.158, 321.425 243.563, 330.113 239.397 C 336.450 236.357, 341.213 233.288, 343.743 230.612 C 347.990 226.122, 357.156 207.477, 358.792 200 C 359.334 197.525, 361.347 189.650, 363.267 182.500 C 369.633 158.787, 369.993 144.568, 364.938 116.500 C 363.750 109.900, 362.457 102.642, 362.066 100.372 C 359.442 85.149, 345.455 72.834, 323.594 66.499 C 310.344 62.659, 283.842 60.520, 268.412 62.043 M 257.500 70.326 C 252.134 72.426, 250.296 73.871, 248.995 77.012 C 247.216 81.306, 249.083 84.485, 254.630 86.603 C 258.282 87.998, 259.680 88.066, 263.723 87.050 C 273.456 84.603, 278.667 78.615, 275.516 73.500 C 272.865 69.196, 264.260 67.681, 257.500 70.326 M 306.791 71.936 C 302.516 73.308, 298.372 76.689, 297.048 79.883 C 292.879 89.948, 312.163 93.771, 321.736 84.778 C 325.039 81.676, 324.883 75.625, 321.443 73.371 C 318.485 71.433, 310.727 70.673, 306.791 71.936 M 249.500 90.144 C 240.950 93.294, 238.130 101.279, 244.250 105.011 C 247.868 107.217, 255.141 107.653, 259.685 105.936 C 263.988 104.311, 268 99.992, 268 96.987 C 268 92.829, 264.127 89.950, 257.872 89.460 C 254.917 89.229, 251.150 89.537, 249.500 90.144 M 296.071 93.697 C 288.336 97.764, 287.072 104.244, 293.277 108.027 C 301.660 113.139, 317 107.604, 317 99.468 C 317 94.583, 314.062 92.617, 306.177 92.225 C 301.186 91.978, 298.634 92.349, 296.071 93.697 M 237.929 110.920 C 233.446 113.361, 232.171 114.893, 231.394 118.779 C 229.543 128.036, 247.375 131.057, 256.048 122.955 C 259.820 119.432, 259.979 115.268, 256.468 111.970 C 252.952 108.667, 243.094 108.109, 237.929 110.920 M 290.037 113.152 C 285.299 114.541, 281.118 117.682, 280.447 120.355 C 279.602 123.722, 281.564 127.723, 284.907 129.452 C 291.405 132.812, 304.214 130.205, 307.026 124.951 C 308.967 121.324, 307.826 116.782, 304.500 114.896 C 300.531 112.644, 294.321 111.896, 290.037 113.152 M 93 129.962 C 80.646 132.608, 74.680 135.161, 62.954 142.817 C 35.586 160.688, 24.832 172.788, 17.907 193.500 C 16.018 199.151, 15.603 202.353, 15.751 210.115 C 15.959 220.969, 20.591 245.947, 24.626 257.973 C 27.934 267.832, 36.044 279.878, 47.301 291.653 C 57.364 302.180, 63.662 306.379, 80.636 313.883 C 99.176 322.078, 102.768 323.088, 113.704 323.178 C 125.428 323.273, 133.359 321.408, 144.197 316.006 C 153.873 311.183, 158.938 307.742, 171.576 297.411 C 189.599 282.677, 198.888 270.761, 204.247 255.500 C 209.988 239.152, 205.737 199.261, 196.256 180.507 C 192.514 173.105, 181.219 158.952, 174.096 152.740 C 163.266 143.294, 141.479 132.546, 126.982 129.496 C 117.579 127.518, 103.506 127.711, 93 129.962 M 97.120 137.082 C 91.915 138.102, 88.647 140.084, 86.323 143.629 C 84.812 145.936, 84.782 146.515, 86.059 148.749 C 87.728 151.666, 94.926 154.863, 100.007 154.944 C 110.776 155.116, 118.660 147.839, 115.038 141.071 C 113.183 137.605, 104.417 135.653, 97.120 137.082 M 313.333 140.806 C 306.045 143.769, 306.537 145.118, 314.082 142.857 C 316.179 142.229, 318.130 141.104, 318.416 140.357 C 319.069 138.656, 318.498 138.706, 313.333 140.806 M 341.226 143.250 C 339.398 145.494, 338.011 152.364, 338.006 159.203 C 338.001 165.297, 339.408 171, 340.916 171 C 341.244 171, 342.522 168.799, 343.756 166.108 C 348.132 156.569, 346.009 137.381, 341.226 143.250 M 350.380 147.634 C 347.060 155.580, 347.622 171.111, 351.255 171.811 C 353.754 172.292, 355.944 166.960, 356.643 158.697 C 357.688 146.337, 353.794 139.461, 350.380 147.634 M 360.298 150.750 C 358.311 155.404, 357.445 168.555, 358.882 172.250 C 361.543 179.097, 365.017 173.379, 365.717 161 C 366.436 148.294, 363.619 142.966, 360.298 150.750 M 225.923 164.923 C 222.335 168.512, 222.235 171.410, 225.534 176.265 C 230.168 183.084, 240.213 186.010, 246.979 182.511 C 252.311 179.753, 252.198 172.512, 246.740 167.247 C 242.737 163.387, 239.200 162, 233.358 162 C 229.705 162, 228.290 162.556, 225.923 164.923 M 279.923 170.923 C 276.182 174.664, 276.081 178.755, 279.626 182.967 C 284.706 189.004, 293.614 192.024, 299.316 189.641 C 308.019 186.005, 306.301 175.708, 296.093 170.324 C 289.679 166.942, 283.682 167.164, 279.923 170.923 M 102.759 182.369 C 94.204 185.546, 91.270 189.816, 94.128 194.931 C 97.732 201.380, 111.537 201.132, 118.578 194.492 C 122.853 190.459, 122.938 186.766, 118.824 183.709 C 115.440 181.194, 107.669 180.546, 102.759 182.369 M 262.833 183.748 C 258.998 184.278, 254.999 188.341, 255.004 191.702 C 255.017 201.275, 270.162 210.070, 278.874 205.565 C 284.799 202.501, 285.149 197.063, 279.836 190.618 C 275.361 185.188, 269.511 182.825, 262.833 183.748 M 174.411 196.772 C 168.477 201.680, 165.522 211.017, 168.005 217.012 C 171.335 225.052, 179.511 222.340, 184.623 211.500 C 187.896 204.559, 187.493 198.365, 183.600 195.765 C 181.628 194.448, 176.548 195.005, 174.411 196.772 M 237.329 202.411 C 231.250 205.144, 230.244 211.414, 234.965 217.142 C 243.164 227.089, 258.866 226.014, 258.964 215.500 C 259.050 206.389, 246.017 198.505, 237.329 202.411 M 290.313 206.187 C 286.628 207.155, 283 211.273, 283 214.487 C 283 220.244, 292.452 228.002, 299.462 227.998 C 304.039 227.996, 309.237 224.944, 310.316 221.624 C 312.954 213.509, 300.124 203.607, 290.313 206.187 M 125.500 210.518 C 119.423 214.019, 119.429 215.314, 125.508 212.429 C 128.271 211.118, 133.232 206.931, 131.905 207.030 C 131.682 207.047, 128.800 208.616, 125.500 210.518 M 32.250 220.134 C 29.014 223.412, 31.912 231.416, 39.144 239.170 C 43.707 244.063, 48.198 246.010, 50.905 244.268 C 53.673 242.488, 52.882 234.711, 49.437 229.842 C 43.802 221.877, 35.280 217.064, 32.250 220.134 M 179.607 223.095 C 173.342 228.022, 170.379 240.442, 174.405 244.894 C 177.992 248.859, 183.455 246.934, 188.057 240.082 C 192.660 233.228, 192.914 224.646, 188.600 221.765 C 186.518 220.375, 182.265 221.004, 179.607 223.095 M 140.476 226.155 C 134.210 231.657, 130.840 240.819, 132.996 246.490 C 135.878 254.071, 143.545 252.209, 149.063 242.587 C 152.175 237.162, 153.069 228.865, 150.965 224.934 C 149.352 221.920, 144.680 222.464, 140.476 226.155 M 71.245 239.105 C 66.296 240.936, 69.421 251.534, 76.902 258.293 C 85.944 266.461, 92.621 263.151, 88.559 252.515 C 85.375 244.177, 76.375 237.207, 71.245 239.105 M 184.488 249.145 C 180.050 253.041, 178 257.774, 178 264.122 C 178 272.443, 182.326 274.797, 188.961 270.089 C 195.268 265.613, 198.304 252.304, 194 248 C 191.195 245.195, 188.636 245.503, 184.488 249.145 M 146.500 250.837 C 143.262 252.812, 138.637 260.499, 137.528 265.750 C 136.558 270.341, 137.780 274.810, 140.492 276.587 C 143.932 278.841, 149.080 276.401, 152.645 270.826 C 156.477 264.834, 157.261 254.261, 154.107 251.107 C 151.531 248.531, 150.351 248.489, 146.500 250.837 M 39.378 262.545 C 37.092 266.034, 38.729 271.275, 43.963 277.220 C 48.841 282.762, 53.055 284.752, 56.545 283.161 C 61.643 280.839, 58.778 270.646, 51.070 263.682 C 46.045 259.142, 41.874 258.737, 39.378 262.545 M 149.934 278.709 C 143.848 283.830, 140.021 296.130, 143.250 300.189 C 147.264 305.234, 155.199 301.501, 159.418 292.582 C 160.838 289.580, 162 285.366, 162 283.217 C 162 276.008, 155.867 273.717, 149.934 278.709 M 78.667 279.667 C 78.300 280.033, 78 282.441, 78 285.017 C 78 288.579, 78.682 290.642, 80.851 293.636 C 84.792 299.076, 89.696 303, 92.554 303 C 95.839 303, 98.374 298.980, 97.526 295.118 C 96.568 290.757, 91.346 283.377, 87.564 281.039 C 84.315 279.031, 79.972 278.361, 78.667 279.667" stroke="none" fill="black" fill-rule="evenodd"/>
</svg>