<svg xmlns="http://www.w3.org/2000/svg" width="707" height="430" viewBox="0 0 707 430" version="1.1">
	<path d="M 231.443 1.288 C 230.669 3.305, 234.299 37.295, 237.606 59 C 243.707 99.050, 253.353 134.863, 268.602 174.088 L 273.107 185.676 278.681 187.987 C 281.747 189.257, 285.660 190.150, 287.378 189.969 C 297.275 188.931, 303.554 189.601, 308.500 192.223 C 312.652 194.424, 315.111 194.939, 323 195.259 C 330.900 195.581, 333.847 196.199, 340.500 198.933 L 348.500 202.219 370.500 201.662 C 395.713 201.024, 421.249 198.337, 438.617 194.497 C 440.310 194.122, 442.160 190.464, 447.847 176.246 C 462.698 139.113, 472.796 102.886, 479.104 64.108 C 482.802 41.374, 486.898 1.593, 485.635 0.682 C 483.908 -0.562, 451.704 0.711, 441.442 2.430 C 423.939 5.360, 412.039 10.203, 398 20.109 C 388.262 26.979, 373.465 41.307, 365.198 51.869 L 358.648 60.238 356.574 57.371 C 350.519 49.002, 338.783 36.049, 331.620 29.827 C 306.536 8.041, 288.786 1.637, 249.778 0.300 C 234.115 -0.237, 231.984 -0.122, 231.443 1.288 M 251.500 190.052 C 242.028 191.508, 222.695 197.643, 219.250 200.286 C 218.563 200.813, 218 202.053, 218 203.040 C 218 208.663, 245.686 210.696, 261.289 206.220 C 271.696 203.233, 281.575 198.662, 282.877 196.230 C 283.830 194.450, 283.366 194.029, 278.218 192.002 C 271.669 189.423, 260.765 188.628, 251.500 190.052 M 288.503 195.250 C 285.434 197.898, 283.831 203.866, 284.677 209.500 C 286.536 221.875, 295.505 226.885, 303.397 219.956 C 310.121 214.053, 313.044 203.363, 309.369 198.117 C 305.648 192.804, 293.305 191.108, 288.503 195.250 M 314.701 201.133 C 315.518 204.497, 318.394 207.461, 327.289 214.108 C 337.042 221.397, 347.203 226.421, 357.410 229.001 C 366.346 231.259, 369.286 231.453, 372.066 229.965 C 375.022 228.383, 374.431 226.676, 369.250 221.838 C 362.494 215.529, 353.435 209.608, 342.316 204.232 C 333.398 199.920, 332.010 199.549, 323.409 199.173 L 314.126 198.767 314.701 201.133 M 271.191 205.689 C 259.381 210.583, 248.952 212.346, 235.311 211.755 C 226.783 211.385, 223.142 210.784, 220 209.230 L 215.878 207.191 214.937 209.665 C 213.042 214.651, 215.452 219.292, 225.578 230.152 C 228.989 233.811, 232.246 238.311, 232.815 240.152 C 233.384 241.994, 234.545 245.996, 235.394 249.046 C 237.324 255.982, 240.478 259.074, 246.288 259.729 C 251.063 260.267, 257.446 258.015, 264.034 253.467 C 270.576 248.951, 277.805 237.694, 282.007 225.479 C 283.728 220.478, 283.768 219.595, 282.451 215.861 C 281.653 213.599, 281 209.555, 281 206.874 C 281 204.193, 280.663 202.055, 280.250 202.123 C 279.837 202.191, 275.761 203.795, 271.191 205.689 M 312.489 213.844 C 310.996 217.172, 308.925 220.663, 307.887 221.602 C 306.350 222.994, 306.003 224.717, 306.017 230.905 C 306.053 246.676, 310.863 259.994, 319.243 267.529 C 324.771 272.499, 329.699 274.467, 334.405 273.584 C 338.128 272.885, 340.031 271.018, 345.779 262.420 C 349.464 256.908, 350.794 255.840, 360.002 250.999 C 370.884 245.278, 375 241.080, 375 235.700 C 375 233.199, 374.735 232.956, 372.750 233.634 C 361.979 237.315, 334.105 225.743, 318.852 211.258 L 315.205 207.794 312.489 213.844 M 431.057 214.894 C 429.083 218.581, 405.161 224.579, 388 225.689 C 382.775 226.027, 378.154 226.798, 377.731 227.402 C 377.308 228.006, 377.231 230.586, 377.559 233.136 C 378.631 241.462, 374.088 247.478, 362.250 253.405 C 359.363 254.851, 357 256.311, 357 256.651 C 357 256.990, 360.075 260.505, 363.833 264.461 C 371.434 272.463, 377 280.051, 377 282.411 C 377 283.289, 375.807 284.225, 374.250 284.568 C 366.408 286.297, 360.001 288.446, 355.620 290.818 L 350.739 293.460 351.412 306.980 C 351.782 314.416, 352.728 333.325, 353.513 349 C 354.299 364.675, 355.188 382.450, 355.490 388.500 C 355.791 394.550, 356.299 402.961, 356.618 407.190 L 357.198 414.881 362.618 415.558 C 365.599 415.931, 373.767 416.017, 380.769 415.750 C 390.898 415.363, 395.953 414.604, 405.500 412.036 C 418.829 408.450, 425.636 408.328, 441.500 411.387 C 452.334 413.477, 464.838 413.389, 474 411.159 C 480.934 409.471, 497 403.352, 497 402.398 C 497 402.041, 430.390 262.761, 426.268 254.500 C 422.409 246.766, 428.563 256.525, 450.229 292.500 C 498.603 372.823, 514.260 398.517, 515.185 399.101 C 516.569 399.975, 532.574 399.152, 539 397.876 C 546.299 396.427, 549.517 395.025, 560.365 388.569 C 568.129 383.948, 571.038 382.825, 579.746 381.088 C 591.127 378.818, 595.274 377.004, 604.331 370.332 C 613.440 363.620, 618.826 361.218, 632.155 357.921 C 643.397 355.141, 654 350.917, 654 349.219 C 654 348.808, 614.625 324.679, 566.500 295.600 C 518.375 266.521, 479 242.557, 479 242.348 C 479 241.819, 479.193 241.918, 575.339 291.698 L 661.177 336.141 668.339 333.979 C 679.254 330.683, 688.151 325.571, 694.432 318.986 C 703.975 308.981, 701.647 304.802, 683 298.470 C 671.116 294.435, 657.842 288.053, 628.383 272.210 C 584.199 248.449, 544.146 232.731, 506 224.185 C 489.112 220.401, 464.892 216.407, 450.500 215.033 C 444.450 214.455, 437.806 213.803, 435.735 213.584 C 432.929 213.288, 431.738 213.621, 431.057 214.894 M 199 227.031 C 159.658 237.215, 117.932 255.184, 66.500 284.093 C 36.060 301.202, 35.104 301.684, 23.932 305.557 C 13.250 309.259, 9.491 311.679, 7.862 315.899 C 5.700 321.502, 20.844 338.927, 31.265 342.826 C 42.261 346.940, 42.598 346.894, 54.127 339.728 C 59.832 336.181, 74.850 326.991, 87.500 319.306 C 168.912 269.845, 198.320 251.721, 203.088 248.074 C 206.064 245.797, 212.388 241.971, 217.139 239.573 L 225.779 235.213 220.139 229.115 L 214.500 223.018 199 227.031 M 286.509 229.702 C 283.371 238.074, 274.217 255.769, 269.110 263.336 C 257.470 280.587, 236.655 305.280, 234.171 304.785 C 233.298 304.611, 231.706 300.807, 230.077 295 C 225.240 277.763, 217.806 267.011, 205.093 258.866 L 197.660 254.103 191.025 258.802 C 187.376 261.386, 154.818 284.425, 118.674 310 L 52.958 356.500 55.729 358.757 C 59.276 361.647, 74.533 367.615, 93 373.337 C 113.811 379.785, 121.889 381.707, 139.769 384.464 C 157.886 387.258, 159.306 387.696, 167.500 393.009 C 170.800 395.149, 175.159 397.592, 177.186 398.437 L 180.871 399.973 226.561 332.737 C 267.897 271.907, 279.279 255.649, 273.280 266 C 268.501 274.245, 199.011 400.807, 198.428 402.328 C 197.837 403.866, 199.587 403.999, 219.642 403.937 L 241.500 403.870 253.771 407.418 C 279.659 414.903, 286.710 415.463, 311.173 411.975 C 321.010 410.573, 327.568 410.149, 332.512 410.597 L 339.650 411.244 340.879 387.872 C 341.555 375.017, 342.281 362.925, 342.494 361 C 342.706 359.075, 343.152 351.650, 343.485 344.500 C 343.819 337.350, 344.279 329.250, 344.510 326.500 C 344.740 323.750, 345.212 316.100, 345.559 309.500 L 346.190 297.500 342.483 301 C 340.444 302.925, 336.314 307.988, 333.305 312.250 C 330.296 316.512, 327.249 320, 326.535 320 C 323.976 320, 310.005 283.361, 305.532 264.917 C 303.576 256.855, 301.924 244.975, 300.744 230.500 C 300.520 227.749, 300.126 227.450, 296 226.903 C 293.525 226.575, 290.782 225.991, 289.904 225.606 C 288.670 225.063, 287.900 225.992, 286.509 229.702 M 219.500 241.787 C 212.651 245.440, 203 251.703, 203 252.495 C 203 252.714, 205.454 254.522, 208.454 256.513 C 219.634 263.934, 227.910 275.489, 232.439 290 C 233.383 293.025, 234.359 296.134, 234.607 296.909 C 234.941 297.951, 235.857 297.560, 238.124 295.409 C 242.745 291.024, 255.223 275.286, 261.553 265.859 C 269.607 253.864, 269.888 253.221, 265.665 256.442 C 257.468 262.694, 245.451 264.792, 239.304 261.044 C 235.038 258.443, 233.398 255.724, 231.429 247.986 C 229.663 241.051, 228.365 237.984, 227.215 238.026 C 226.822 238.041, 223.350 239.733, 219.500 241.787 M 347.010 266.485 C 344.232 270.601, 340.641 274.651, 339.029 275.485 C 331.656 279.298, 321.930 276.039, 313.718 267.003 C 310.968 263.976, 308.952 262.185, 309.240 263.022 C 309.527 263.859, 310.939 268.862, 312.376 274.139 C 316.398 288.902, 325.407 313.035, 326.873 312.974 C 327.218 312.960, 328.995 310.744, 330.821 308.051 C 339.267 295.597, 352.361 285.964, 365.494 282.544 C 368.689 281.711, 371.514 280.819, 371.772 280.561 C 372.829 279.505, 355.312 259, 353.353 259 C 352.642 259, 349.788 262.368, 347.010 266.485" stroke="none" fill="black" fill-rule="evenodd"/>
</svg>