<svg xmlns="http://www.w3.org/2000/svg" width="750" height="500" viewBox="0 0 750 500" version="1.1">
	<path d="M 363 79.503 C 337.299 83.383, 315.229 91.107, 302.215 100.776 C 289.358 110.328, 267.012 134.872, 252.099 155.821 C 238.639 174.730, 227.445 184.484, 213.093 189.808 C 206.916 192.099, 205.111 192.265, 184.500 192.448 C 168.192 192.592, 160.301 193.091, 154 194.377 C 118.843 201.553, 96.526 220.481, 86.650 251.500 C 82.283 265.219, 81.569 270.585, 81.534 290 C 81.503 306.809, 81.716 309.160, 83.867 315.725 C 85.169 319.699, 86.802 323.421, 87.495 323.996 C 88.306 324.669, 95.991 324.945, 109.036 324.771 L 129.316 324.500 131.572 317.809 C 147.101 271.758, 197.746 244.677, 244 257.691 C 273.421 265.968, 297.277 288.602, 307.566 318 L 309.841 324.500 378.078 324.500 L 446.315 324.500 448.510 318 C 458.496 288.438, 483.118 265.212, 512.646 257.500 C 537.515 251.005, 564.490 255.284, 586.338 269.190 C 602.170 279.268, 616.311 296.539, 622.615 313.500 C 624.046 317.350, 625.617 321.533, 626.108 322.796 C 626.931 324.917, 627.505 325.069, 633.658 324.796 L 640.317 324.500 643.616 318 C 648.757 307.868, 650.520 298.740, 650.377 283 C 650.221 265.909, 647.426 254.484, 639.370 238 C 634.160 227.340, 632.973 225.729, 623.125 215.942 C 611.283 204.174, 597.503 194.480, 582.545 187.394 C 577.443 184.977, 572.861 183, 572.362 183 C 569.602 183, 563.547 176.047, 559.856 168.641 C 548.566 145.982, 529.634 124.429, 509 110.744 C 483.704 93.967, 457.135 84.245, 423.500 79.460 C 411.023 77.684, 374.872 77.710, 363 79.503 M 378.500 106.647 C 361.504 108.618, 351.880 111.365, 338.797 117.982 C 328.827 123.025, 323.617 126.552, 313.237 135.286 C 297.238 148.748, 280.764 171.883, 279.276 182.981 L 278.764 186.796 288.132 187.413 C 304.534 188.495, 406.919 189.938, 422.250 189.304 L 437 188.694 437 148.958 L 437 109.223 433.711 108.605 C 422.568 106.515, 389.697 105.349, 378.500 106.647 M 458 151.500 L 458 188 488.250 187.942 C 504.887 187.911, 520.300 187.568, 522.500 187.181 C 526.110 186.546, 526.531 186.160, 526.815 183.220 C 527.856 172.446, 505.037 142.449, 485.694 129.164 C 479.355 124.811, 460.531 115, 458.516 115 C 458.232 115, 458 131.425, 458 151.500 M 123.500 213.065 C 109.862 218.415, 98.842 232.304, 104.505 237.004 C 108.767 240.542, 121.749 236.494, 130.310 228.958 C 144.422 216.536, 140.138 206.539, 123.500 213.065 M 634.129 261.563 C 631.225 265.255, 629.678 274.182, 630.238 284.018 C 631.354 303.627, 640.163 306.711, 643.042 288.500 C 644.900 276.749, 642.323 262.314, 637.950 259.973 C 636.530 259.214, 635.708 259.556, 634.129 261.563 M 214.500 278.742 C 186.709 280.870, 162.268 300.695, 154.561 327.362 C 149.869 343.596, 151.596 360.414, 159.648 376.904 C 174.198 406.701, 209.575 421.172, 241.211 410.268 C 260.698 403.551, 276.678 387.875, 283.117 369.159 C 292.873 340.803, 285.411 313.719, 262.441 294.118 C 249.821 283.349, 231.418 277.447, 214.500 278.742 M 529.500 279.093 C 496.762 282.224, 472.231 307.351, 468.506 341.571 C 467.329 352.385, 472.304 371.519, 478.979 381.845 C 496.605 409.117, 528.469 420.519, 558.311 410.233 C 581.494 402.243, 597.429 383.895, 602.497 359.360 C 611.721 314.703, 575.350 274.709, 529.500 279.093" stroke="none" fill="black" fill-rule="evenodd"/>
</svg>