<svg xmlns="http://www.w3.org/2000/svg" width="630" height="630" viewBox="0 0 630 630" version="1.1">
	<path d="M 355.333 51.442 C 347.335 59.727, 342.672 61.104, 320.430 61.749 C 292.993 62.545, 280.686 59.796, 271.350 50.785 C 267.222 46.801, 267.178 46.787, 263.350 48.119 C 261.232 48.857, 256.800 49.518, 253.500 49.588 C 245.305 49.764, 239.066 51.171, 225.797 55.838 C 202.473 64.040, 172.823 73.095, 164.312 74.614 C 153.861 76.480, 140.025 81.392, 131 86.441 C 123.765 90.488, 121.876 91.408, 104 99.594 C 97.125 102.742, 89.925 106.312, 88 107.528 C 81.832 111.424, 57.370 125, 56.518 125 C 56.066 125, 53.852 126.372, 51.598 128.048 C 47.196 131.322, 38.276 136.781, 31 140.654 C 28.525 141.971, 24.787 144.500, 22.693 146.274 C 18.967 149.432, 18.918 149.563, 20.346 152.500 C 21.148 154.150, 24.321 161.125, 27.397 168 C 37.972 191.637, 56.546 225.687, 62.561 232.462 L 66.079 236.424 82.789 236.493 C 91.980 236.531, 102.650 236.898, 106.500 237.307 C 110.350 237.717, 118.225 238.549, 124 239.156 C 134.333 240.243, 134.567 240.325, 138.737 244.326 C 144.052 249.425, 145.577 253.648, 144.152 259.321 C 141.919 268.209, 141.762 277.246, 140.518 467.999 C 140.351 493.573, 139.953 517.873, 139.634 521.999 C 138.712 533.905, 140.387 574.786, 141.857 576.257 C 142.702 577.102, 147.323 577.556, 156.300 577.676 C 163.560 577.772, 177.150 578.123, 186.500 578.456 C 195.850 578.788, 234.100 579.288, 271.500 579.567 C 308.900 579.846, 348.725 580.256, 360 580.478 C 403.164 581.329, 425.492 581.258, 454 580.178 C 485.459 578.987, 495.748 578.217, 496.502 576.997 C 498.225 574.209, 498.828 314.551, 497.213 270.500 C 496.709 256.750, 496.501 243.363, 496.749 240.750 C 497.198 236.033, 497.227 236, 500.851 236.001 C 502.858 236.001, 507.650 236.647, 511.500 237.436 C 518.379 238.847, 552.398 241.355, 562.807 241.220 C 569.142 241.138, 570.286 240.308, 574.053 233.060 C 575.643 230.002, 577.603 226.375, 578.410 225 C 582.644 217.780, 589.131 201.610, 595.460 182.500 C 598.384 173.672, 602.201 164.536, 606.700 155.603 C 610.997 147.071, 611.638 140.199, 608.437 136.995 C 607.302 135.859, 603.027 133.794, 598.937 132.405 C 591.269 129.803, 574.659 122.605, 561.182 116.044 C 556.957 113.987, 550.350 111.269, 546.500 110.005 C 529.801 104.522, 519.899 100.476, 511.873 95.859 C 509.329 94.395, 504.393 92.157, 500.904 90.885 C 497.415 89.613, 491.751 86.418, 488.317 83.786 C 484.882 81.154, 481.117 79, 479.949 79 C 478.782 79, 472.742 77.242, 466.528 75.094 C 460.314 72.945, 451.749 70.413, 447.494 69.466 C 443.239 68.520, 435.781 66.020, 430.920 63.912 C 425.984 61.771, 416.878 58.980, 410.291 57.589 C 386.878 52.645, 383.675 51.896, 381.917 50.956 C 380.935 50.430, 379.071 50, 377.776 50 C 376.480 50, 372.963 49.336, 369.960 48.525 C 366.957 47.713, 363.600 46.834, 362.500 46.569 C 361.051 46.221, 359.077 47.563, 355.333 51.442 M 226.849 165.881 C 221.829 169.064, 219.115 172.467, 216.783 178.500 C 215.546 181.699, 214.663 182.568, 212.372 182.840 C 209.711 183.156, 208.052 184.455, 208.015 186.250 C 208.007 186.662, 209.575 187, 211.500 187 C 214.567 187, 215 187.310, 215 189.500 C 215 191.591, 214.526 192, 212.107 192 C 209.658 192, 208 193.446, 208 195.582 C 208 195.812, 209.800 196, 212 196 C 215.189 196, 216 196.366, 216 197.804 C 216 200.526, 221.351 208.407, 225.145 211.271 C 232.291 216.667, 241.467 217.204, 249.500 212.695 C 252.468 211.029, 253.584 209.718, 253.827 207.615 L 254.154 204.781 250.827 207.315 C 243.228 213.104, 233.372 212.900, 226.436 206.809 C 223.024 203.814, 220 199.228, 220 197.050 C 220 196.369, 224.706 196, 233.383 196 C 245.926 196, 246.800 195.874, 247.290 194 C 247.795 192.068, 247.320 192, 233.406 192 L 219 192 219 189.500 L 219 187 234.417 187 C 245.814 187, 249.965 186.674, 250.338 185.750 C 250.615 185.063, 250.878 186.855, 250.921 189.734 C 251.027 196.790, 254.701 201.209, 260.555 201.323 C 266.099 201.430, 270 200.231, 270 198.420 C 270 197.165, 269.184 197, 265.623 197.534 C 261.782 198.110, 261.048 197.907, 259.623 195.873 C 257.508 192.852, 257.516 185.135, 259.639 182.106 C 261.067 180.066, 261.836 179.843, 265.639 180.364 C 269.443 180.885, 270 180.723, 270 179.094 C 270 177.649, 268.988 177.075, 265.523 176.556 C 260.299 175.772, 254.977 177.804, 253.111 181.295 C 251.960 183.451, 251.564 183.493, 235.509 183.204 L 219.085 182.907 220.111 180.208 C 224.821 167.819, 239.023 163.402, 249.777 170.982 C 254.804 174.525, 255 174.569, 255 172.155 C 255 167.950, 245.324 163.055, 236.946 163.022 C 232.520 163.004, 230.469 163.585, 226.849 165.881 M 276.256 176.982 C 275.022 177.504, 273.085 179.409, 271.951 181.215 C 269.089 185.775, 269.612 194.894, 272.938 198.434 C 277.459 203.247, 285.650 202.546, 288.427 197.109 C 291.700 190.699, 291.104 182.215, 287.128 178.616 C 284.826 176.533, 279.288 175.701, 276.256 176.982 M 394 177.752 C 389.402 180.049, 386.758 185.189, 387.321 190.736 C 387.886 196.305, 390.139 199.561, 394.399 200.967 C 398.689 202.382, 406 200.765, 406 198.400 C 406 197.172, 405.166 197.003, 401.693 197.523 C 396.635 198.282, 395.316 197.200, 394.953 192 C 394.273 182.239, 396.023 179.428, 402.172 180.411 C 405.473 180.939, 406 180.764, 406 179.137 C 406 177.824, 405.050 177.060, 402.875 176.625 C 398.429 175.736, 397.901 175.803, 394 177.752 M 293.303 189 C 293.353 200.875, 293.378 201, 295.677 201 C 297.868 201, 298.006 200.617, 298.103 194.250 L 298.205 187.500 300.261 194.301 C 302.144 200.531, 302.527 201.077, 304.825 200.801 C 307.029 200.536, 307.585 199.592, 309.416 193 L 311.500 185.500 311.792 193.250 L 312.084 201 315.042 201 L 318 201 318 189 L 318 177 313.659 177 L 309.318 177 308.087 182.500 C 307.410 185.525, 306.510 188, 306.087 188 C 305.664 188, 304.764 185.525, 304.087 182.500 L 302.857 177 298.055 177 L 293.253 177 293.303 189 M 321 189 L 321 201 323.500 201 C 325.912 201, 326.003 200.762, 326.079 194.250 C 326.162 187.152, 326.619 187.545, 328.985 196.750 C 329.894 200.286, 330.486 201, 332.511 201 C 334.621 201, 335.156 200.237, 336.541 195.250 C 339.052 186.205, 339.465 186.015, 339.786 193.750 L 340.088 201 343.044 201 L 346 201 346 189 L 346 177 341.660 177 L 337.319 177 336 182.500 C 335.274 185.525, 334.374 188, 334 188 C 333.626 188, 332.726 185.525, 332 182.500 L 330.681 177 325.840 177 L 321 177 321 189 M 349 189 L 349 201 357.500 201 C 364.389 201, 366 200.716, 366 199.500 C 366 198.364, 364.771 198, 360.940 198 L 355.879 198 356.190 194.250 C 356.483 190.704, 356.704 190.483, 360.250 190.190 C 365.615 189.746, 365.400 187, 360 187 C 356.095 187, 356 186.917, 356 183.500 L 356 180 361 180 C 364.778 180, 366 179.633, 366 178.500 C 366 177.284, 364.389 177, 357.500 177 L 349 177 349 189 M 368 189 L 368 201 371.500 201 L 375 201 375.024 196.250 L 375.049 191.500 377.692 196.250 C 380.138 200.643, 380.627 201, 384.207 201 L 388.078 201 384.789 194.961 C 381.859 189.581, 381.679 188.818, 383.138 187.974 C 385.644 186.524, 386.345 182.176, 384.523 179.394 C 383.099 177.222, 382.261 177, 375.477 177 L 368 177 368 189 M 408 189.040 L 408 201.081 416.250 200.790 C 425.171 200.476, 427.570 198.697, 419.750 198.195 L 415 197.890 415 193.945 C 415 190.103, 415.091 190, 418.500 190 C 420.944 190, 422 189.548, 422 188.500 C 422 187.452, 420.944 187, 418.500 187 C 415.167 187, 415 186.833, 415 183.500 C 415 180.019, 415.024 180, 419.500 180 C 422.833 180, 424 179.611, 424 178.500 C 424 177.292, 422.444 177, 416 177 L 408 177 408 189.040 M 278.035 181.934 C 277.466 182.998, 277 186.178, 277 189 C 277 194.590, 278.299 198, 280.428 198 C 282.347 198, 283 195.713, 283 189 C 283 185.790, 282.727 182.452, 282.393 181.582 C 281.560 179.411, 279.287 179.595, 278.035 181.934 M 375 183.500 C 375 185.989, 375.402 187.033, 376.250 186.750 C 376.938 186.521, 377.500 185.058, 377.500 183.500 C 377.500 181.942, 376.938 180.479, 376.250 180.250 C 375.402 179.967, 375 181.011, 375 183.500" stroke="none" fill="black" fill-rule="evenodd"/>
</svg>